<?xml version="1.0" encoding="UTF-8"?><svg id="Capa_1" xmlns="http://www.w3.org/2000/svg" viewBox="0 0 1208 768"><defs><style>.cls-1{fill:#347992;}.cls-1,.cls-2{stroke-width:0px;}.cls-2{fill:#275465;}</style></defs><path class="cls-2" d="M90.16,16.3v377.59H7.84V16.3h82.32Z"/><path class="cls-2" d="M306.65,160.39h82.91v233.5h-82.91v-25.98c-17.6,22.09-41.34,33.19-71.57,33.19-16.89,0-32.48-3.31-46.89-9.45-14.29-6.14-26.69-15-37.44-25.98-10.75-11.1-18.9-24.45-24.68-39.68-5.91-15.24-8.74-31.53-8.74-49.49,0-16.54,2.95-32.48,8.74-47.48,5.91-15,13.7-27.99,24.09-39.33,10.39-11.1,22.44-20.2,36.73-26.69,14.29-6.5,29.88-9.8,47.12-9.8,29.29,0,53.38,10.04,72.16,30.59v-23.39h.47ZM202.95,276.49c0,7.44,1.3,14.65,4.25,21.14,2.6,6.5,6.5,12.4,11.1,16.89,4.61,4.84,10.39,8.74,16.89,11.34,6.5,2.6,13.7,4.25,21.14,4.25s14.29-1.3,20.79-4.25c6.5-2.6,12.05-6.5,16.89-11.34,4.61-4.84,8.5-10.39,11.34-16.89,2.95-6.5,4.25-13.35,4.25-20.43s-1.3-14.29-4.25-20.79-6.85-12.4-11.34-16.89c-4.61-4.84-10.39-8.74-16.89-11.34-6.5-2.6-13.35-4.25-20.79-4.25s-14.65,1.3-21.14,4.25c-6.5,2.6-12.05,6.5-16.89,11.34-4.61,4.84-8.5,10.39-11.1,16.54-2.6,6.5-4.25,12.99-4.25,20.43h0Z"/><path class="cls-2" d="M602.04,235.74c-14.29-9.8-28.58-14.65-43.23-14.65-7.8,0-15.24,1.3-22.09,4.25-6.85,2.95-12.64,6.5-17.83,11.69-5.2,4.84-9.09,11.1-12.05,17.83-2.95,6.85-4.25,14.65-4.25,23.15s1.3,15.59,4.25,22.44c2.95,6.85,6.85,12.64,11.69,17.83,4.84,4.84,11.1,8.74,17.83,11.69,6.85,2.6,14.29,4.25,22.44,4.25,15.59,0,29.88-5.2,43.23-15.94v69.92c-20.2,8.74-39.68,13.35-57.87,13.35-16.89,0-33.19-2.95-48.42-8.74-15.24-5.91-28.94-13.94-40.27-24.68-11.69-10.75-21.14-23.74-27.99-38.74-6.85-15-10.39-31.89-10.39-50.43s3.31-35.43,10.04-50.79c6.5-15.24,15.59-28.58,27.28-39.68,11.34-11.1,25.39-19.84,41.34-25.98,15.94-6.14,32.83-9.45,51.02-9.45,20.2,0,38.38,4.25,55.63,12.64v69.92h-.35v.12Z"/><path class="cls-1" d="M1009.16,160.39v217.55c0,12.99-.71,24.68-2.24,35.08-1.65,10.39-3.54,19.49-6.5,27.28-3.54,10.04-9.45,19.13-16.89,27.99-7.8,8.74-16.89,16.3-27.99,22.44-11.1,6.5-23.39,11.34-37.09,15-13.7,3.54-28.58,5.55-44.88,5.55-18.19,0-34.84-2.24-50.08-6.85-15.24-4.61-28.35-10.75-39.68-18.9-11.34-8.15-20.79-17.6-27.99-28.35-7.2-10.75-12.05-22.44-14.65-35.08h92.71c5.91,15.59,18.9,23.15,38.98,23.15,17.24,0,30.59-4.84,39.68-14.65,9.09-9.8,13.94-23.15,13.94-40.63v-22.44c-6.14,5.91-12.05,10.39-17.6,14.29-5.55,3.9-11.34,6.85-16.89,9.45-5.91,2.24-11.69,4.25-18.19,5.2-6.5.94-13.35,1.65-20.79,1.65-16.54,0-31.89-2.95-45.83-8.74-13.94-5.91-25.98-13.7-36.14-24.09-10.04-10.39-17.83-22.79-23.74-37.09-5.55-14.29-8.5-30.24-8.5-48.19s2.95-34.49,9.09-49.72c6.14-15.24,14.29-28.58,24.68-40.04,10.39-11.34,22.79-20.2,37.44-27.05,14.29-6.5,30.24-9.8,47.12-9.8,27.64,0,50.79,10.39,69.57,30.94v-24.68h82.32v.71h.12ZM824.44,275.78c0,7.44,1.3,14.65,4.25,21.14,2.6,6.5,6.5,12.4,11.1,16.89,4.61,4.84,10.39,8.74,16.89,11.34,6.5,2.6,13.7,4.25,21.14,4.25s14.29-1.3,20.79-4.25c6.5-2.6,12.05-6.5,16.89-11.34,4.61-4.84,8.5-10.39,11.34-16.89,2.95-6.5,4.25-13.35,4.25-20.79s-1.3-14.65-4.25-20.79c-2.95-6.5-6.85-12.05-11.69-16.89-4.84-4.84-10.39-8.74-16.89-11.34-6.5-2.6-13.35-4.25-20.2-4.25-7.2,0-13.94,1.3-20.43,4.25-6.5,2.95-12.05,6.85-16.89,11.34-4.84,4.61-8.74,10.04-11.69,16.54-2.95,6.85-4.61,13.7-4.61,20.79h0Z"/><rect class="cls-1" x="629.68" y="160.39" width="82.32" height="233.5"/><path class="cls-1" d="M1148.76,229.01v164.52h-82.32v-164.52h-29.64v-68.62h29.64v-35.08c0-19.49,2.01-34.84,5.55-46.53,2.95-9.8,7.8-18.9,14.65-27.05,6.5-8.5,14.65-15.59,23.39-21.5,9.09-6.14,18.54-10.75,28.94-13.94,10.39-3.31,20.43-4.84,30.59-4.84,6.85,0,13.35.71,19.13,2.24,5.79,1.54,12.05,3.54,17.83,6.5v71.93c-5.55-2.6-10.39-4.84-15.24-6.14-4.61-1.3-9.8-2.01-14.65-2.01-3.31,0-6.85.71-10.04,1.65-3.54.94-6.85,3.31-9.8,6.5-2.95,3.31-5.2,8.15-6.14,14.29-.94,6.14-1.65,14.65-1.65,25.39v29.29h57.87v68.62h-58.23v-.71h.12Z"/><path class="cls-1" d="M645.27,93.66c2.6,6.5,6.14,12.64,10.75,18.54,4.25,5.55,8.5,9.8,11.34,12.4v-33.78h-23.15c.35.94.71,2.01.94,2.95l.12-.12Z"/><path class="cls-1" d="M640.66,68.97c0,5.2.71,10.39,2.01,15.59h25.04v-29.88h-25.04c-1.65,4.61-2.01,9.09-2.01,14.29Z"/><path class="cls-1" d="M690.74,23.39c4.84,5.91,8.74,12.05,11.34,18.9.71,2.01,1.65,3.9,2.24,5.91h16.89c-2.6-6.5-6.5-12.4-11.69-17.24-7.44-7.44-16.54-12.64-26.34-15,2.24,2.01,4.84,4.61,7.44,7.44h.12Z"/><path class="cls-1" d="M655.66,27.64c-4.61,5.2-7.8,11.1-10.39,17.24-.35.94-.94,2.24-1.3,3.31h23.39v-31.53c-2.95,2.24-7.2,5.91-11.69,11.1v-.12Z"/><path class="cls-1" d="M639.72,42.28c2.95-6.85,6.5-12.99,11.34-18.9,2.6-3.31,5.2-5.91,7.44-7.8-10.39,2.24-19.84,7.44-27.28,15.24-4.84,5.2-8.74,11.1-11.69,17.24h17.83c.71-2.01,1.3-3.9,2.24-5.91l.12.12Z"/><path class="cls-1" d="M634.52,68.97c0-4.84.71-9.8,1.65-14.29h-18.54c-1.65,5.2-2.24,10.75-2.24,16.3,0,4.61.71,9.09,1.65,13.7h19.13c-1.3-5.55-1.65-10.39-1.65-15.59v-.12Z"/><path class="cls-1" d="M651.17,116.1c-4.84-6.14-8.74-12.99-11.34-20.2-.71-1.65-1.3-3.54-2.01-5.2h-19.13c2.6,7.44,7.2,14.29,12.64,20.2,7.8,8.15,17.83,13.35,28.58,15.59-2.6-2.95-5.55-6.5-8.74-10.39Z"/><path class="cls-1" d="M670.66,0c-38.98,0-70.63,31.53-70.63,70.63s31.53,70.86,70.63,70.86,70.63-31.53,70.63-70.63S709.75,0,670.66,0ZM714.24,115.15c-5.55,5.91-12.4,10.39-19.49,13.35-7.44,3.31-15.59,4.84-24.09,4.84s-16.3-1.65-24.09-4.84c-7.44-3.31-13.94-7.8-19.49-13.35-5.55-5.91-10.04-12.4-13.35-19.84-3.31-7.8-4.84-15.94-4.84-24.45s1.65-16.54,4.84-24.45c3.31-7.44,7.44-14.29,13.35-19.84,5.55-5.91,12.4-10.39,19.49-13.35,7.44-3.31,15.59-4.84,24.09-4.84s16.3,1.65,24.09,4.84c7.44,3.31,13.94,7.8,19.49,13.35,5.55,5.91,10.04,12.4,13.35,19.84,3.31,7.8,4.84,15.94,4.84,24.45s-1.65,16.54-4.84,24.45c-3.31,7.44-7.8,13.94-13.35,19.84Z"/><path class="cls-1" d="M702.2,95.9c-2.95,6.85-6.5,13.7-11.34,20.2-2.95,3.9-6.14,7.44-8.74,10.04,10.39-2.24,19.84-7.44,27.64-15.24,5.55-5.91,10.04-12.64,12.64-20.2h-18.19c-.71,1.65-.94,3.54-2.01,5.2Z"/><path class="cls-1" d="M696.64,44.53c-2.6-6.14-6.14-11.69-10.39-17.24-4.84-5.55-9.45-9.45-12.4-11.69v32.48h24.09c-.35-1.3-.94-2.24-1.3-3.54h0Z"/><path class="cls-1" d="M706.09,54.33c.94,4.61,1.65,9.45,1.65,14.29,0,5.2-.71,10.39-1.65,15.59h18.54c.94-4.25,1.65-8.74,1.65-13.7,0-5.55-.71-11.1-2.24-16.3h-17.83l-.12.12Z"/><path class="cls-1" d="M701.25,68.97c0-4.84-.71-9.8-1.65-14.29h-25.98v29.88h25.75c1.65-5.55,2.01-10.39,2.01-15.59h-.12Z"/><path class="cls-1" d="M696.64,93.31c.35-.94.71-2.01.94-2.95h-24.09v34.49c2.95-2.6,7.8-7.2,12.4-13.35,4.61-5.55,8.15-11.69,10.75-18.19h0Z"/><path class="cls-2" d="M35.74,588.04H15.42v13.52h19.05v10.16H15.42v26.67H3.63v-60.5h32.11v10.16Z"/><path class="cls-2" d="M76.29,603.37c3.9,3.54,6.62,8.98,6.62,15.42s-2.72,11.79-6.62,15.33c-3.36,3.08-8.44,5.53-15.87,5.53s-12.52-2.45-15.87-5.53c-3.9-3.54-6.62-8.98-6.62-15.33s2.72-11.88,6.62-15.42c3.36-3.08,8.44-5.53,15.87-5.53s12.52,2.45,15.87,5.53ZM71.48,618.79c0-6.17-4.72-11.16-11.07-11.16s-11.07,4.99-11.07,11.16,4.63,11.07,11.07,11.07,11.07-5.08,11.07-11.07Z"/><path class="cls-2" d="M90.07,599.1h11.07v5.9c1.72-3.36,4.08-4.99,4.9-5.44,1.72-1.09,3.9-1.72,6.53-1.72,1.9,0,3.45.45,4.72.91l-1.45,10.34c-1.45-1-2.9-1.45-5.17-1.45-2.09,0-5.17.45-7.35,3.18-2.09,2.63-2.18,5.99-2.18,8.71v18.87h-11.07v-39.28Z"/><path class="cls-2" d="M156.83,603.37c3.9,3.54,6.62,8.98,6.62,15.42s-2.72,11.79-6.62,15.33c-3.36,3.08-8.44,5.53-15.87,5.53s-12.52-2.45-15.87-5.53c-3.9-3.54-6.62-8.98-6.62-15.33s2.72-11.88,6.62-15.42c3.36-3.08,8.44-5.53,15.87-5.53s12.52,2.45,15.87,5.53ZM152.02,618.79c0-6.17-4.72-11.16-11.07-11.16s-11.07,4.99-11.07,11.16,4.63,11.07,11.07,11.07,11.07-5.08,11.07-11.07Z"/><path class="cls-2" d="M220.5,572.25h11.07v66.13h-11.07v-5.08c-3.99,5.71-9.25,6.35-12.06,6.35-12.06,0-20.05-9.43-20.05-20.95s7.89-20.86,19.5-20.86c2.99,0,8.89.54,12.61,6.35v-31.93ZM199.82,618.7c0,6.26,4.53,11.16,10.88,11.16s10.89-4.9,10.89-11.16-4.54-11.07-10.89-11.07-10.88,4.81-10.88,11.07Z"/><path class="cls-2" d="M279.28,627.4c-1.18,2.9-5.62,12.25-19.32,12.25-6.35,0-11.16-1.81-15.06-5.53-4.35-4.08-6.17-9.16-6.17-15.33,0-7.8,3.17-12.61,5.99-15.42,4.63-4.54,10.07-5.53,14.79-5.53,7.98,0,12.61,3.17,15.33,6.44,4.17,4.99,4.72,11.16,4.72,15.42v.91h-29.39c0,2.36.63,4.9,1.9,6.62,1.18,1.63,3.63,3.72,7.89,3.72s7.35-2,9.16-5.17l10.16,1.63ZM269.12,613.53c-.91-5.35-5.26-7.89-9.34-7.89s-8.35,2.63-9.25,7.89h18.6Z"/><path class="cls-2" d="M338.78,606h27.76v.73c0,4.08-.54,16.78-8.89,25.04-6.26,6.26-13.97,7.98-21.5,7.98s-15.33-1.54-21.95-8.16c-2.09-2.09-8.98-9.71-8.98-23.31,0-11.7,5.26-18.87,8.89-22.5,4.54-4.63,12.16-9.25,23.86-9.25,4.54,0,9.34.73,13.97,3.17,3.9,2,8.16,5.62,11.34,11.07l-10.25,5.53c-2.09-4.08-5.17-6.17-7.08-7.17-2.54-1.27-5.71-1.91-8.53-1.91-4.81,0-10.25,1.72-13.97,5.35-3.45,3.36-6.08,9.16-6.08,15.97,0,8.07,3.45,12.88,5.99,15.33,2.72,2.63,6.98,5.17,13.42,5.17,3.99,0,8.53-1.09,11.88-3.63,2.36-1.81,4.72-4.9,5.71-9.25h-15.6v-10.16Z"/><path class="cls-2" d="M410.8,603.37c3.9,3.54,6.62,8.98,6.62,15.42s-2.72,11.79-6.62,15.33c-3.36,3.08-8.44,5.53-15.87,5.53s-12.52-2.45-15.87-5.53c-3.9-3.54-6.62-8.98-6.62-15.33s2.72-11.88,6.62-15.42c3.36-3.08,8.44-5.53,15.87-5.53s12.52,2.45,15.87,5.53ZM405.99,618.79c0-6.17-4.72-11.16-11.07-11.16s-11.07,4.99-11.07,11.16,4.63,11.07,11.07,11.07,11.07-5.08,11.07-11.07Z"/><path class="cls-2" d="M435.65,604.18c3.9-5.44,9.43-6.35,12.79-6.35,11.61,0,19.32,8.98,19.32,20.86s-7.98,20.95-19.59,20.95c-2.54,0-8.25-.45-12.52-6.35v5.08h-11.07v-66.13h11.07v31.93ZM434.56,618.7c0,6.26,4.53,11.16,10.88,11.16s10.89-4.9,10.89-11.16-4.53-11.07-10.89-11.07-10.88,4.81-10.88,11.07Z"/><path class="cls-2" d="M513.48,627.4c-1.18,2.9-5.62,12.25-19.32,12.25-6.35,0-11.16-1.81-15.06-5.53-4.35-4.08-6.17-9.16-6.17-15.33,0-7.8,3.17-12.61,5.99-15.42,4.63-4.54,10.07-5.53,14.79-5.53,7.98,0,12.61,3.17,15.33,6.44,4.17,4.99,4.72,11.16,4.72,15.42v.91h-29.39c0,2.36.63,4.9,1.9,6.62,1.18,1.63,3.63,3.72,7.89,3.72s7.35-2,9.16-5.17l10.16,1.63ZM503.32,613.53c-.91-5.35-5.26-7.89-9.34-7.89s-8.35,2.63-9.25,7.89h18.6Z"/><path class="cls-2" d="M520.91,599.1h11.07v5.9c1.72-3.36,4.08-4.99,4.9-5.44,1.72-1.09,3.9-1.72,6.53-1.72,1.9,0,3.45.45,4.72.91l-1.45,10.34c-1.45-1-2.9-1.45-5.17-1.45-2.09,0-5.17.45-7.35,3.18-2.09,2.63-2.18,5.99-2.18,8.71v18.87h-11.07v-39.28Z"/><path class="cls-2" d="M552.21,599.1h11.07v5.08c2.09-2.9,5.81-6.35,12.16-6.35,3.45,0,8.53,1,11.61,4.81,2.72,3.36,3.08,7.26,3.08,11.07v24.67h-11.07v-21.41c0-2.18-.09-5.62-2.09-7.71-1.72-1.81-4.08-2-5.17-2-2.9,0-5.17,1-6.8,3.45-1.63,2.54-1.72,5.35-1.72,7.62v20.05h-11.07v-39.28Z"/><path class="cls-2" d="M629.4,599.1h11.07v39.28h-11.07v-5.08c-3.99,5.71-9.25,6.35-12.06,6.35-12.06,0-20.05-9.43-20.05-20.95s7.89-20.86,19.5-20.86c2.99,0,8.89.54,12.61,6.35v-5.08ZM608.72,618.7c0,6.26,4.53,11.16,10.88,11.16s10.89-4.9,10.89-11.16-4.54-11.07-10.89-11.07-10.88,4.81-10.88,11.07Z"/><path class="cls-2" d="M649.62,599.1h11.07v5.08c2.09-2.9,5.81-6.35,12.16-6.35,3.45,0,8.53,1,11.61,4.81,2.72,3.36,3.08,7.26,3.08,11.07v24.67h-11.07v-21.41c0-2.18-.09-5.62-2.09-7.71-1.72-1.81-4.08-2-5.17-2-2.9,0-5.17,1-6.8,3.45-1.63,2.54-1.72,5.35-1.72,7.62v20.05h-11.07v-39.28Z"/><path class="cls-2" d="M711.94,628.95h20.77v9.43h-40.18l22.31-29.84h-18.87v-9.43h38.28l-22.31,29.84Z"/><path class="cls-2" d="M768.45,599.1h11.07v39.28h-11.07v-5.08c-3.99,5.71-9.25,6.35-12.06,6.35-12.06,0-20.05-9.43-20.05-20.95s7.89-20.86,19.5-20.86c2.99,0,8.89.54,12.61,6.35v-5.08ZM747.77,618.7c0,6.26,4.53,11.16,10.88,11.16s10.89-4.9,10.89-11.16-4.53-11.07-10.89-11.07-10.88,4.81-10.88,11.07Z"/><path class="cls-2" d="M838.56,572.25h11.07v66.13h-11.07v-5.08c-3.99,5.71-9.25,6.35-12.06,6.35-12.06,0-20.05-9.43-20.05-20.95s7.89-20.86,19.5-20.86c2.99,0,8.89.54,12.61,6.35v-31.93ZM817.88,618.7c0,6.26,4.53,11.16,10.88,11.16s10.89-4.9,10.89-11.16-4.54-11.07-10.89-11.07-10.88,4.81-10.88,11.07Z"/><path class="cls-2" d="M897.34,627.4c-1.18,2.9-5.62,12.25-19.32,12.25-6.35,0-11.16-1.81-15.06-5.53-4.35-4.08-6.17-9.16-6.17-15.33,0-7.8,3.17-12.61,5.99-15.42,4.63-4.54,10.07-5.53,14.79-5.53,7.98,0,12.61,3.17,15.33,6.44,4.17,4.99,4.72,11.16,4.72,15.42v.91h-29.39c0,2.36.63,4.9,1.9,6.62,1.18,1.63,3.63,3.72,7.89,3.72s7.35-2,9.16-5.17l10.16,1.63ZM887.18,613.53c-.91-5.35-5.26-7.89-9.34-7.89s-8.35,2.63-9.25,7.89h18.6Z"/><path class="cls-2" d="M937.97,577.88v60.5h-11.79v-60.5h11.79Z"/><path class="cls-2" d="M948.77,599.1h11.07v5.08c2.09-2.9,5.81-6.35,12.16-6.35,3.45,0,8.53,1,11.61,4.81,2.72,3.36,3.08,7.26,3.08,11.07v24.67h-11.07v-21.41c0-2.18-.09-5.62-2.09-7.71-1.72-1.81-4.08-2-5.17-2-2.9,0-5.17,1-6.8,3.45-1.63,2.54-1.72,5.35-1.72,7.62v20.05h-11.07v-39.28Z"/><path class="cls-2" d="M1006.91,608.54v29.84h-11.07v-29.84h-4.35v-9.43h4.35v-13.42h11.07v13.42h7.62v9.43h-7.62Z"/><path class="cls-2" d="M1057.52,627.4c-1.18,2.9-5.62,12.25-19.32,12.25-6.35,0-11.16-1.81-15.06-5.53-4.35-4.08-6.17-9.16-6.17-15.33,0-7.8,3.17-12.61,5.99-15.42,4.63-4.54,10.07-5.53,14.79-5.53,7.98,0,12.61,3.17,15.33,6.44,4.17,4.99,4.72,11.16,4.72,15.42v.91h-29.39c0,2.36.63,4.9,1.9,6.62,1.18,1.63,3.63,3.72,7.89,3.72s7.35-2,9.16-5.17l10.16,1.63ZM1047.36,613.53c-.91-5.35-5.26-7.89-9.34-7.89s-8.35,2.63-9.25,7.89h18.6Z"/><path class="cls-2" d="M1064.96,599.1h11.07v5.9c1.72-3.36,4.08-4.99,4.9-5.44,1.72-1.09,3.9-1.72,6.53-1.72,1.9,0,3.45.45,4.72.91l-1.45,10.34c-1.45-1-2.9-1.45-5.17-1.45-2.09,0-5.17.45-7.35,3.18-2.09,2.63-2.18,5.99-2.18,8.71v18.87h-11.07v-39.28Z"/><path class="cls-2" d="M1096.25,599.1h11.07v5.08c2.09-2.9,5.81-6.35,12.16-6.35,3.45,0,8.53,1,11.61,4.81,2.72,3.36,3.08,7.26,3.08,11.07v24.67h-11.07v-21.41c0-2.18-.09-5.62-2.09-7.71-1.72-1.81-4.08-2-5.17-2-2.9,0-5.17,1-6.8,3.45-1.63,2.54-1.72,5.35-1.72,7.62v20.05h-11.07v-39.28Z"/><path class="cls-2" d="M1181.88,627.4c-1.18,2.9-5.62,12.25-19.32,12.25-6.35,0-11.16-1.81-15.06-5.53-4.35-4.08-6.17-9.16-6.17-15.33,0-7.8,3.17-12.61,5.99-15.42,4.63-4.54,10.07-5.53,14.79-5.53,7.98,0,12.61,3.17,15.33,6.44,4.17,4.99,4.72,11.16,4.72,15.42v.91h-29.39c0,2.36.63,4.9,1.9,6.62,1.18,1.63,3.63,3.72,7.89,3.72s7.35-2,9.16-5.17l10.16,1.63ZM1171.72,613.53c-.91-5.35-5.26-7.89-9.34-7.89s-8.35,2.63-9.25,7.89h18.6Z"/><path class="cls-2" d="M1200.38,608.54v29.84h-11.07v-29.84h-4.35v-9.43h4.35v-13.42h11.07v13.42h7.62v9.43h-7.62Z"/><path class="cls-2" d="M32.11,681.1h11.07v66.13h-11.07v-5.08c-3.99,5.71-9.25,6.35-12.06,6.35-12.06,0-20.05-9.43-20.05-20.95s7.89-20.86,19.5-20.86c2.99,0,8.89.54,12.61,6.35v-31.93ZM11.43,727.54c0,6.26,4.53,11.16,10.88,11.16s10.89-4.9,10.89-11.16-4.54-11.07-10.89-11.07-10.88,4.81-10.88,11.07Z"/><path class="cls-2" d="M90.89,736.25c-1.18,2.9-5.62,12.25-19.32,12.25-6.35,0-11.16-1.81-15.06-5.53-4.35-4.08-6.17-9.16-6.17-15.33,0-7.8,3.17-12.61,5.99-15.42,4.63-4.54,10.07-5.53,14.79-5.53,7.98,0,12.61,3.17,15.33,6.44,4.17,4.99,4.72,11.16,4.72,15.42v.91h-29.39c0,2.36.63,4.9,1.9,6.62,1.18,1.63,3.63,3.72,7.89,3.72s7.35-2,9.16-5.17l10.16,1.63ZM80.73,722.37c-.91-5.35-5.26-7.89-9.34-7.89s-8.35,2.63-9.25,7.89h18.6Z"/><path class="cls-2" d="M155.56,734.53h-24.4l-5.35,12.7h-12.79l26.03-60.5h9.25l25.31,60.5h-12.7l-5.35-12.7ZM152.11,724.91l-8.62-21.77-8.62,21.77h17.24Z"/><path class="cls-2" d="M177.69,707.95h11.07v4.45c4.17-5.26,9.34-5.71,11.7-5.71,8.25,0,11.43,5.17,12.43,7.17,1.9-3.08,5.81-7.17,12.61-7.17,6.08,0,9.07,2.81,10.61,4.81,2.54,3.36,2.72,6.71,2.72,11.07v24.67h-11.07v-21.41c0-4.63-1-6.71-1.81-7.71-1.45-1.81-3.45-2-4.54-2-2.99,0-4.9,1.36-6.08,3.45-1.45,2.36-1.54,5.53-1.54,7.62v20.05h-11.07v-21.41c0-4.63-1-6.71-1.81-7.71-1.45-1.81-3.45-2-4.54-2-2.99,0-4.9,1.36-6.08,3.45-1.45,2.36-1.54,5.53-1.54,7.62v20.05h-11.07v-39.28Z"/><path class="cls-2" d="M286.54,736.25c-1.18,2.9-5.62,12.25-19.32,12.25-6.35,0-11.16-1.81-15.06-5.53-4.35-4.08-6.17-9.16-6.17-15.33,0-7.8,3.17-12.61,5.99-15.42,4.63-4.54,10.07-5.53,14.79-5.53,7.98,0,12.61,3.17,15.33,6.44,4.17,4.99,4.72,11.16,4.72,15.42v.91h-29.39c0,2.36.63,4.9,1.9,6.62,1.18,1.63,3.63,3.72,7.89,3.72s7.35-2,9.16-5.17l10.16,1.63ZM276.38,722.37c-.91-5.35-5.26-7.89-9.34-7.89s-8.35,2.63-9.25,7.89h18.6ZM280.46,688.81l-13.61,12.16-5.08-3.63,10.7-13.61,7.98,5.08Z"/><path class="cls-2" d="M293.97,707.95h11.07v5.9c1.72-3.36,4.08-4.99,4.9-5.44,1.72-1.09,3.9-1.72,6.53-1.72,1.9,0,3.45.45,4.72.91l-1.45,10.34c-1.45-1-2.9-1.45-5.17-1.45-2.09,0-5.17.45-7.35,3.17-2.09,2.63-2.18,5.99-2.18,8.71v18.87h-11.07v-39.28Z"/><path class="cls-2" d="M330.8,684.73c3.63,0,6.62,2.99,6.62,6.62s-2.99,6.62-6.62,6.62-6.62-2.99-6.62-6.62,2.99-6.62,6.62-6.62ZM336.33,707.95v39.28h-11.07v-39.28h11.07Z"/><path class="cls-2" d="M375.06,719.92c-2.36-2.18-5.26-3.45-9.07-3.45-7.35,0-11.07,5.35-11.07,11.07,0,6.44,4.81,11.16,11.43,11.16,2.45,0,5.71-.73,8.71-3.45v10.79c-2.18,1.09-5.62,2.45-10.16,2.45-6.17,0-11.61-2.36-15.15-5.71-2.99-2.81-6.26-7.71-6.26-15.06,0-6.89,2.81-12.43,6.8-15.96,4.81-4.26,10.34-5.08,14.15-5.08,4.08,0,7.44.82,10.61,2.36v10.89Z"/><path class="cls-2" d="M412.16,707.95h11.07v39.28h-11.07v-5.08c-3.99,5.71-9.25,6.35-12.06,6.35-12.06,0-20.05-9.43-20.05-20.95s7.89-20.86,19.5-20.86c2.99,0,8.89.54,12.61,6.35v-5.08ZM391.48,727.54c0,6.26,4.53,11.16,10.88,11.16s10.89-4.9,10.89-11.16-4.54-11.07-10.89-11.07-10.88,4.81-10.88,11.07Z"/><path class="cls-2" d="M465.58,686.72v50.34h18.69v10.16h-30.48v-60.5h11.79Z"/><path class="cls-2" d="M519.56,707.95h11.07v39.28h-11.07v-5.08c-3.99,5.71-9.25,6.35-12.06,6.35-12.06,0-20.05-9.43-20.05-20.95s7.89-20.86,19.5-20.86c2.99,0,8.89.54,12.61,6.35v-5.08ZM498.87,727.54c0,6.26,4.53,11.16,10.88,11.16s10.89-4.9,10.89-11.16-4.54-11.07-10.89-11.07-10.88,4.81-10.88,11.07Z"/><path class="cls-2" d="M550.85,717.38v29.84h-11.07v-29.84h-4.35v-9.43h4.35v-13.42h11.07v13.42h7.62v9.43h-7.62Z"/><path class="cls-2" d="M568.44,684.73c3.63,0,6.62,2.99,6.62,6.62s-2.99,6.62-6.62,6.62-6.62-2.99-6.62-6.62,2.99-6.62,6.62-6.62ZM573.98,707.95v39.28h-11.07v-39.28h11.07Z"/><path class="cls-2" d="M583.14,707.95h11.07v5.08c2.09-2.9,5.81-6.35,12.16-6.35,3.45,0,8.53,1,11.61,4.81,2.72,3.36,3.08,7.26,3.08,11.07v24.67h-11.07v-21.41c0-2.18-.09-5.62-2.09-7.71-1.72-1.81-4.08-2-5.17-2-2.9,0-5.17,1-6.8,3.45-1.63,2.54-1.72,5.35-1.72,7.62v20.05h-11.07v-39.28Z"/><path class="cls-2" d="M660.33,707.95h11.07v39.28h-11.07v-5.08c-3.99,5.71-9.25,6.35-12.06,6.35-12.06,0-20.05-9.43-20.05-20.95s7.89-20.86,19.5-20.86c2.99,0,8.89.54,12.61,6.35v-5.08ZM639.65,727.54c0,6.26,4.53,11.16,10.88,11.16s10.89-4.9,10.89-11.16-4.54-11.07-10.89-11.07-10.88,4.81-10.88,11.07Z"/><path class="cls-2" d="M713.93,741.33l-18.69-33.38h12.88l12.16,22.31,10.89-22.31h12.52l-31.66,60.05h-12.52l14.42-26.67Z"/><path class="cls-2" d="M806.09,736.25c-1.18,2.9-5.62,12.25-19.32,12.25-6.35,0-11.16-1.81-15.06-5.53-4.35-4.08-6.17-9.16-6.17-15.33,0-7.8,3.17-12.61,5.99-15.42,4.63-4.54,10.07-5.53,14.79-5.53,7.98,0,12.61,3.17,15.33,6.44,4.17,4.99,4.72,11.16,4.72,15.42v.91h-29.39c0,2.36.63,4.9,1.9,6.62,1.18,1.63,3.63,3.72,7.89,3.72s7.35-2,9.16-5.17l10.16,1.63ZM795.93,722.37c-.91-5.35-5.26-7.89-9.34-7.89s-8.35,2.63-9.25,7.89h18.6Z"/><path class="cls-2" d="M824.59,681.1v66.13h-11.07v-66.13h11.07Z"/><path class="cls-2" d="M899.06,745.05c-3.63,1.91-8.44,3.54-14.97,3.54-10.61,0-17.05-3.63-22.13-8.44-6.98-6.71-9.71-14.24-9.71-23.13,0-10.98,4.53-18.87,9.71-23.68,6.08-5.71,13.61-7.98,22.22-7.98,4.26,0,9.34.73,14.88,3.72v13.79c-5.53-6.35-12.43-6.8-14.6-6.8-12.16,0-20.05,9.98-20.05,21.14,0,13.42,10.34,20.68,20.5,20.68,5.62,0,10.61-2.45,14.15-6.62v13.79Z"/><path class="cls-2" d="M937.06,707.95h11.07v39.28h-11.07v-5.08c-3.99,5.71-9.25,6.35-12.06,6.35-12.06,0-20.05-9.43-20.05-20.95s7.89-20.86,19.5-20.86c2.99,0,8.89.54,12.61,6.35v-5.08ZM916.38,727.54c0,6.26,4.53,11.16,10.88,11.16s10.89-4.9,10.89-11.16-4.53-11.07-10.89-11.07-10.88,4.81-10.88,11.07Z"/><path class="cls-2" d="M957.29,707.95h11.07v5.9c1.72-3.36,4.08-4.99,4.9-5.44,1.72-1.09,3.9-1.72,6.53-1.72,1.9,0,3.45.45,4.72.91l-1.45,10.34c-1.45-1-2.9-1.45-5.17-1.45-2.09,0-5.17.45-7.35,3.17-2.09,2.63-2.18,5.99-2.18,8.71v18.87h-11.07v-39.28Z"/><path class="cls-2" d="M994.12,684.73c3.63,0,6.62,2.99,6.62,6.62s-2.99,6.62-6.62,6.62-6.62-2.99-6.62-6.62,2.99-6.62,6.62-6.62ZM999.65,707.95v39.28h-11.07v-39.28h11.07Z"/><path class="cls-2" d="M1019.88,713.03c3.9-5.44,9.43-6.35,12.79-6.35,11.61,0,19.32,8.98,19.32,20.86s-7.98,20.95-19.59,20.95c-2.54,0-8.25-.45-12.52-6.35v5.08h-11.07v-66.13h11.07v31.93ZM1018.79,727.54c0,6.26,4.53,11.16,10.88,11.16s10.89-4.9,10.89-11.16-4.53-11.07-10.89-11.07-10.88,4.81-10.88,11.07Z"/><path class="cls-2" d="M1097.7,736.25c-1.18,2.9-5.62,12.25-19.32,12.25-6.35,0-11.16-1.81-15.06-5.53-4.35-4.08-6.17-9.16-6.17-15.33,0-7.8,3.17-12.61,5.99-15.42,4.63-4.54,10.07-5.53,14.79-5.53,7.98,0,12.61,3.17,15.33,6.44,4.17,4.99,4.72,11.16,4.72,15.42v.91h-29.39c0,2.36.63,4.9,1.9,6.62,1.18,1.63,3.63,3.72,7.89,3.72s7.35-2,9.16-5.17l10.16,1.63ZM1087.54,722.37c-.91-5.35-5.26-7.89-9.34-7.89s-8.35,2.63-9.25,7.89h18.6Z"/></svg>